# xmcd CD database file
#
# Track frame offsets:
#	180
#	19614
#	46330
#	70509
#	95727
#	116808
#	133401
#	149142
#	172290
#	191532
#	205516
#
# Disc length: 2993 seconds
#
# Revision: 0
# Processed by: cddbd v1.5.1PL0 Copyright (c) Steve Scherf et al.
# Submitted via: CDex 1.51
#
DISCID=a90baf0b
DTITLE=Jerry "Boogie" McCain - Unplugged
DYEAR=2001
DGENRE=Blues
TTITLE0=Olla Mae
TTITLE1=Gal Named Mary
TTITLE2=Sexual Harrasment
TTITLE3=Excited by Your Charms
TTITLE4=If Love Kills Me
TTITLE5=Bad Love Blues
TTITLE6=Sun Won't Shine
TTITLE7=Take My Love and Leave Me Flat
TTITLE8=I Got You
TTITLE9=If You Love Me
TTITLE10=Look At Me
EXTD=YEAR: 2001
EXTT0=
EXTT1=
EXTT2=
EXTT3=
EXTT4=
EXTT5=
EXTT6=
EXTT7=
EXTT8=
EXTT9=
EXTT10=
PLAYORDER=
